HIERARCHY
ROOT hip
{
	OFFSET 0.000000 0.000000 0.000000 
	CHANNELS 6 Xposition Yposition Zposition Xrotation Zrotation Yrotation
	JOINT abdomen
	{
		OFFSET 0.000000 3.402643 0.000000 
		CHANNELS 3 Xrotation Zrotation Yrotation
		JOINT chest
		{
			OFFSET 0.000000 8.438565 -0.680529 
			CHANNELS 3 Xrotation Zrotation Yrotation
			JOINT neck
			{
				OFFSET 0.000000 10.207942 -0.272212 
				CHANNELS 3 Xrotation Zrotation Yrotation
				JOINT head
				{
					OFFSET 0.000000 3.130431 0.000000 
					CHANNELS 3 Xrotation Zrotation Yrotation
					End Site
					{
						OFFSET 0.000000 3.130435 0.000000 
					}
				}
			}
			JOINT lCollar
			{
				OFFSET 3.470700 6.669187 -0.816635 
				CHANNELS 3 Yrotation Zrotation Xrotation
				JOINT lShldr
				{
					OFFSET 3.198488 0.000000 0.000000 
					CHANNELS 3 Zrotation Yrotation Xrotation
					JOINT lForeArm
					{
						OFFSET 10.139888 0.000000 0.000000 
						CHANNELS 3 Yrotation Zrotation Xrotation
						JOINT lHand
						{
							OFFSET 8.370511 0.000000 0.000000 
							CHANNELS 3 Zrotation Yrotation Xrotation
							End Site
							{
								OFFSET 4.083176 0.000000 0.000000 
							}
						}
					}
				}
			}
			JOINT rCollar
			{
				OFFSET -3.470700 6.669187 -0.816635 
				CHANNELS 3 Yrotation Zrotation Xrotation
				JOINT rShldr
				{
					OFFSET -3.198488 0.000000 0.000000 
					CHANNELS 3 Zrotation Yrotation Xrotation
					JOINT rForeArm
					{
						OFFSET -10.139888 0.000000 0.000000 
						CHANNELS 3 Yrotation Zrotation Xrotation
						JOINT rHand
						{
							OFFSET -8.370511 0.000000 0.000000 
							CHANNELS 3 Zrotation Yrotation Xrotation
							End Site
							{
								OFFSET -4.083176 0.000000 0.000000 
							}
						}
					}
				}
			}
		}
	}
	JOINT lThigh
	{
		OFFSET 5.308129 -1.633274 1.361059 
		CHANNELS 3 Xrotation Zrotation Yrotation
		JOINT lShin
		{
			OFFSET -2.041588 -20.007561 0.000000 
			CHANNELS 3 Xrotation Zrotation Yrotation
			JOINT lFoot
			{
				OFFSET 0.000000 -19.190928 -1.224953 
				CHANNELS 3 Xrotation Yrotation Zrotation
				End Site
				{
					OFFSET 0.000000 -2.449906 4.627600 
				}
			}
		}
	}
	JOINT rThigh
	{
		OFFSET -5.308129 -1.633274 1.361059 
		CHANNELS 3 Xrotation Zrotation Yrotation
		JOINT rShin
		{
			OFFSET 2.041588 -20.007561 0.000000 
			CHANNELS 3 Xrotation Zrotation Yrotation
			JOINT rFoot
			{
				OFFSET 0.000000 -19.190928 -1.224953 
				CHANNELS 3 Xrotation Yrotation Zrotation
				End Site
				{
					OFFSET 0.000000 -2.449906 4.627600 
				}
			}
		}
	}
}
MOTION
Frames: 13
Frame Time: 0.033333
0.000000 47.352921 -2.358537 -20.837648 -0.214833 -0.585970 1.792725 -1.171774 -0.752195 3.166723 -0.458977 -0.332099 17.303968 0.078122 -0.527343 27.502090 0.517521 -0.849575 1.091550 -1.527827 0.283312 -56.927021 43.146156 29.076191 -67.848671 11.808359 7.318298 -0.009747 -3.173813 0.175513 -1.927531 0.653233 0.322063 53.704006 -36.655807 27.590216 62.838402 -7.937416 11.267319 -0.063505 3.232521 0.084448 -26.769279 9.868721 7.212592 15.016659 -5.205120 -1.104450 -12.699450 -6.564497 -7.991262 -26.669308 -7.919884 -10.131843 15.876742 5.106856 1.048434 -18.577812 7.440835 6.111420 
0.000000 44.951744 -3.024859 -27.783205 0.000000 0.000000 7.900391 0.000000 0.000000 6.494141 0.000000 0.000000 16.337891 0.000000 0.000000 28.300781 0.000000 -0.371120 1.671812 -0.996319 0.664021 -39.167068 77.009338 53.908894 -55.780418 5.821699 9.998113 -0.014621 -3.173794 0.263809 -2.029264 0.650013 0.673364 37.875858 -77.238640 54.814560 55.943455 -5.795273 10.691605 0.004859 3.164059 0.088296 -23.450193 9.909081 -1.294304 32.698914 -4.390064 -2.695813 -19.099070 -0.159213 -5.090201 -23.845940 -9.130095 -0.112538 34.003017 3.871399 2.441241 -21.913136 0.861882 3.316631 
0.000000 38.337776 -1.671086 -9.414063 0.000000 0.000000 8.955145 0.097656 0.039079 7.373140 0.068359 0.078137 9.218599 -0.048828 0.175781 18.886972 -0.039062 -0.371100 1.804796 -0.922156 0.488134 -37.636063 70.860703 48.652699 -57.980759 10.894569 10.137014 -0.014666 -3.183560 0.263808 -1.862389 0.804473 0.487976 36.839230 -70.937172 49.113636 58.053684 -10.900776 10.764466 -0.000603 3.164078 0.165763 -55.260761 11.473665 -2.380317 63.390903 -2.135690 -5.750581 -25.390879 -1.210546 -5.526508 -55.991413 -10.917430 0.521784 64.287224 0.644440 4.585536 -26.604313 2.785980 4.843081 
0.000000 31.724207 -0.317395 8.945313 0.000000 0.000000 10.000334 0.195312 0.097689 8.242588 0.146484 0.156274 2.099190 -0.068358 0.351562 9.473149 -0.078123 -0.361341 1.938197 -0.839053 0.312431 -35.125820 64.777534 44.248154 -60.248264 15.970936 10.471275 -0.014666 -3.183560 0.263808 -1.694536 0.957858 0.302560 34.596352 -64.697624 44.503803 60.222912 -15.992229 11.032001 -0.005525 3.164118 0.253520 -87.226196 12.225304 -4.144770 93.915382 1.334897 -7.215126 -31.686531 -2.249407 -6.057751 -88.329636 -12.119542 2.018234 94.478714 -3.223180 4.831078 -31.305052 4.590609 6.551376 
0.000000 25.615723 1.156053 31.015623 0.000000 0.000000 9.296942 0.097656 0.039079 7.890719 0.068359 0.078137 -5.986388 -0.019531 0.175781 -1.425535 -0.039062 -0.361335 1.800497 -0.920684 0.224627 -26.164410 63.882153 58.924355 -66.789101 19.937239 11.690289 -0.009777 -3.183579 0.176052 -1.858630 0.803268 0.224469 25.737291 -63.856628 59.056820 66.786301 -19.823410 12.339536 -0.127398 3.291389 0.158453 -112.436378 17.518906 -3.437647 112.391998 3.239114 -8.883213 -39.420250 -6.590783 -4.890144 -114.669640 -18.123549 0.287989 112.669960 -6.698438 5.407907 -37.969696 8.929271 5.958295 
0.000000 19.507816 2.629333 53.076172 0.000000 -0.009766 8.603518 -0.009766 -0.009767 7.548829 0.000000 0.000000 -14.072266 0.000000 -0.009766 -12.324219 0.000000 -0.371094 1.652785 -1.001919 0.136812 -18.366245 62.070637 72.486061 -73.592903 23.735369 13.421786 -0.014654 -3.173809 0.088297 -2.013273 0.649496 0.136626 17.967319 -62.100597 72.542564 73.607681 -23.484051 14.153127 -0.239909 3.418268 0.064013 -138.440430 22.605482 -5.191566 130.842789 5.597147 -9.878963 -47.153851 -11.042297 -4.314545 -141.955750 -24.255020 1.596192 131.020294 -10.213758 4.900476 -44.702225 13.262629 5.829890 
0.000000 19.003456 2.323243 56.591812 -0.009766 -0.097658 9.385051 -0.185547 -0.087922 9.218737 0.078125 -0.009766 -17.587891 0.000000 -0.097656 -16.094070 0.029295 -0.625000 1.594005 -0.923934 0.136806 -56.796471 1.995051 26.568743 -78.280952 18.247248 15.613676 0.063929 -3.330166 0.074022 -2.081842 0.737223 0.136617 56.680157 -2.080851 26.798346 78.249580 -18.508951 15.967959 -0.333221 3.447151 -0.029713 -131.972717 24.131006 -4.672196 133.896179 6.761803 -9.292742 -61.822407 -11.361311 -6.828947 -134.163071 -24.372444 -0.959391 134.043747 -12.790575 3.346524 -59.720325 10.808598 8.090683 
0.000000 18.499405 2.017115 60.107422 0.000000 -0.175781 10.176951 -0.361326 -0.185605 10.878907 0.156250 0.000027 -21.093750 0.000000 -0.185547 -19.864038 0.048822 -0.888672 1.535226 -0.845949 0.136799 -49.762615 -64.384171 0.400393 -82.621025 12.602566 17.288588 0.141996 -3.486514 0.069072 -2.140622 0.815208 0.136610 50.693520 64.376808 1.691157 82.611305 -13.403182 17.318361 -0.426649 3.485512 -0.123008 -125.389854 25.575954 -3.922292 136.959152 7.891837 -8.569678 -76.487106 -11.040444 -9.374734 -126.382225 -24.178013 -3.521101 137.196915 -15.292901 1.633944 -74.506172 7.886963 9.593864 
0.000000 21.830898 1.192387 56.591812 -0.009766 -0.087892 9.385051 -0.185547 -0.087922 8.867174 0.078125 -0.009766 -17.148436 0.000000 -0.097656 -15.996367 0.019529 -0.800781 1.596832 -0.919040 0.312495 -3.046681 -77.210182 -55.870804 -81.419701 5.936299 17.877274 0.123193 -3.398226 -0.105009 -2.084093 0.730834 0.312268 2.771488 77.497734 -55.920883 81.056053 -6.688979 17.803541 -0.367202 3.407576 -0.109214 -107.085571 22.850634 -1.506617 126.820305 6.752841 -5.631012 -79.150749 -8.116739 -12.108280 -107.056267 -20.916677 -3.807456 126.325348 -13.505409 -1.375174 -78.075645 4.555651 14.199403 
0.000000 25.162529 0.367750 53.076172 -0.009766 0.000000 8.593750 0.000000 0.000000 6.845703 0.000000 0.000000 -13.193360 -0.009766 0.000000 -12.128785 -0.009765 -0.712892 1.668748 -1.001442 0.488171 57.312630 -67.955215 -125.704384 -80.145561 -0.725275 18.614656 0.094071 -3.310133 -0.278620 -2.027177 0.646469 0.497704 -58.218189 67.688469 -126.533478 79.452095 0.008246 18.475698 -0.298596 3.339346 -0.104808 -89.315536 19.570166 -0.184185 116.649361 6.177185 -2.531616 -81.647934 -5.078636 -14.687534 -88.139122 -17.752913 -2.920341 115.425865 -12.304393 -4.673500 -81.358421 0.952384 18.606550 
0.000000 29.851170 0.444615 55.751884 -0.029297 0.136719 3.222839 0.107422 0.097674 -1.533133 0.136719 0.029320 -1.865295 -0.039062 0.087891 -1.970952 -0.156241 -0.625024 1.674881 -1.115637 0.253940 -96.522980 -119.991356 31.395300 -71.064476 0.062082 16.596203 0.101676 -3.329686 -0.240218 -2.005256 0.713438 0.263490 95.439461 120.272736 30.327044 70.271797 -0.720659 16.497198 -0.277892 3.339477 -0.084172 -72.439842 17.753660 3.980852 91.508469 4.101067 -1.335094 -61.810604 -8.713196 -14.554491 -71.391594 -16.639286 -5.862655 90.053528 -9.150277 -4.033687 -63.326859 6.391846 19.098967 
0.000000 34.539742 0.521533 58.437275 -0.048828 0.263672 -2.147742 0.214843 0.185582 -9.911868 0.283203 0.048876 9.472416 -0.078125 0.175781 8.196545 -0.322250 -0.566452 1.670344 -1.239665 0.019730 -81.679108 -130.853638 19.979280 -61.950764 0.522765 14.488070 0.119036 -3.349217 -0.202395 -1.973060 0.790007 0.029277 80.461433 131.228073 18.691664 61.069389 -1.134651 14.427749 -0.266959 3.329817 -0.064061 -55.956299 14.863010 7.384441 66.366989 2.767162 0.600193 -41.693493 -12.035883 -13.151203 -54.852108 -14.774934 -8.328853 64.889000 -6.035143 -4.785986 -45.059231 11.655621 17.831583 
0.000000 38.615204 1.010041 62.177670 -0.029297 0.126953 -6.083820 0.107422 0.087909 -15.068333 0.146484 0.009791 18.613209 -0.048828 0.087891 16.048883 -0.273409 -0.830115 1.653863 -1.277720 -0.283014 -86.215500 -130.867233 24.748674 -49.317249 2.766039 12.179966 0.140462 -3.417817 -0.067222 -2.007457 0.898260 -0.273389 85.410835 131.177765 23.885548 48.490360 -3.394797 12.056670 -0.262979 3.359429 0.004621 -42.702816 12.811388 9.845385 39.787052 1.257091 -0.372455 -8.848773 -15.207990 -7.434464 -41.873333 -13.202537 -11.263762 38.725414 -3.778891 -1.595573 -13.277204 16.462471 10.839060 
